# xmcd CD database file
#
# Track frame offsets:
#	150
#	20135
#	61920
#	76352
#	83744
#	100870
#	140101
#	146774
#	161797
#	177082
#	183281
#
# Disc length: 2791 seconds
#
# Revision: 0
# Processed by: cddbd v1.5.2PL0 Copyright (c) Steve Scherf et al.
# Submitted via: CDex 1.70beta2
#
DISCID=940ae50b
DTITLE=Bathyscape V - Bathyscape V
DYEAR=1995
DGENRE=Jazz
TTITLE0=Trianon de Propriac
TTITLE1=Zephyr
TTITLE2=Paris-Chartres
TTITLE3=Camilouche
TTITLE4=Petit Tambour
TTITLE5=Bathyscape
TTITLE6=Au Clair des Brumes
TTITLE7=Tango Pour Oscar
TTITLE8=Fouguie Bouguie
TTITLE9=Galatee
TTITLE10=Messe Sans Nom
EXTD=YEAR: 1995
EXTT0=
EXTT1=
EXTT2=
EXTT3=
EXTT4=
EXTT5=
EXTT6=
EXTT7=
EXTT8=
EXTT9=
EXTT10=
PLAYORDER=
